<svg width="60" height="60" viewBox="0 0 60 60" fill="none" xmlns="http://www.w3.org/2000/svg">
<path d="M0.50001 30.0001C0.502639 35.078 1.8155 40.0693 4.31162 44.4914C6.80775 48.9134 10.4027 52.6166 14.7488 55.2427L14.7686 55.2611C14.8176 55.3022 14.8747 55.3326 14.9362 55.3503C19.413 58.0157 24.5163 59.447 29.7262 59.4986C34.9361 59.5501 40.0667 58.2201 44.5954 55.6439C49.1242 53.0678 52.8893 49.3374 55.5075 44.8329C58.1257 40.3283 59.5033 35.2103 59.5002 30.0001C59.5002 29.3865 59.4752 28.7814 59.4384 28.1777C59.4384 28.1664 59.4384 28.1555 59.4384 28.1442C59.4384 28.1409 59.4355 28.1385 59.4346 28.1357C59.0919 22.8247 57.3211 17.7049 54.3092 13.3171C51.2974 8.92924 47.1564 5.43636 42.3236 3.2074C42.288 3.18519 42.2496 3.16789 42.2094 3.15595C35.3112 0.006001 27.4627 -0.35624 20.3038 2.14492C20.2664 2.1527 20.2301 2.16506 20.1957 2.18174C13.5936 4.52654 8.03511 9.13354 4.50589 15.1858C4.4636 15.2331 4.43147 15.2885 4.41149 15.3487C1.84477 19.8047 0.495778 24.8577 0.50001 30.0001ZM1.57617 32.7146C4.16604 37.9571 7.74193 38.8822 7.91421 38.9237C7.93845 38.9294 7.96305 38.9333 7.98784 38.9355C12.5927 39.298 12.1797 45.8192 12.1608 46.0882C11.8696 49.3342 12.5224 51.6229 13.2464 53.1055C9.96621 50.7288 7.22919 47.6815 5.2171 44.1658C3.205 40.6502 1.96389 36.7467 1.57617 32.7146ZM58.4684 27.8671C57.3691 28.1726 56.3719 28.7673 55.5805 29.5891C54.7892 30.411 54.2326 31.4299 53.9688 32.5399C53.8662 33.1332 53.6092 33.689 53.2235 34.1513C52.8482 32.8084 52.678 31.4165 52.7185 30.0227C52.7214 29.9595 52.7116 29.8963 52.6896 29.837C52.6676 29.7776 52.634 29.7233 52.5906 29.6772C52.5764 29.6621 51.1722 28.1465 51.1722 26.343C51.1722 26.2497 51.1445 26.1584 51.0926 26.0808C51.0407 26.0032 50.967 25.9428 50.8808 25.907C50.7946 25.8713 50.6997 25.862 50.6081 25.8802C50.5166 25.8984 50.4325 25.9433 50.3665 26.0093C50.3528 26.023 48.7914 27.2455 44.4358 24.0585C44.3638 24.0066 44.2786 23.976 44.1899 23.9703C44.1013 23.9646 44.0129 23.984 43.9348 24.0263C43.8567 24.0686 43.7922 24.132 43.7485 24.2094C43.7049 24.2867 43.684 24.3748 43.6881 24.4635C43.6933 24.5579 43.8297 26.8377 45.2387 27.9478C45.7814 28.3732 46.4623 28.5826 47.1503 28.5359C47.1168 29.0787 46.9017 29.5944 46.5395 30.0001C45.8787 30.7227 44.7256 31.0626 43.108 31.0059C42.8617 30.0567 42.0409 27.5131 40.0802 26.2949C39.8022 26.1208 39.4764 26.0389 39.1492 26.0608C38.8219 26.0828 38.51 26.2075 38.2578 26.4171C37.9948 26.6249 37.8042 26.9104 37.7133 27.233C37.6225 27.5556 37.6359 27.8986 37.7518 28.2131C38.5849 30.5075 40.4398 34.173 43.8618 34.5379L39.2763 39.9565C39.2282 40.0134 39.1941 40.0808 39.1767 40.1533L38.2634 44.036L36.2536 45.5993C36.1724 45.6627 36.1139 45.7508 36.087 45.8504L35.6476 47.4981L32.4545 50.3481C32.252 50.4654 32.0238 50.5311 31.7899 50.5394C31.5561 50.5476 31.3238 50.4981 31.1135 50.3953C30.4999 50.0616 29.4691 48.8159 29.4007 44.2286C29.471 43.8443 29.7244 41.8638 28.0913 39.2881V36.6921C28.0914 36.5856 28.0554 36.4822 27.9892 36.3988C27.9231 36.3153 27.8306 36.2567 27.7269 36.2324L25.7408 35.7679C24.9778 35.4307 24.1501 35.2651 23.3162 35.283C22.4822 35.3008 21.6623 35.5017 20.9145 35.8713C19.8365 34.7857 15.7603 30.2073 18.7311 25.6539C18.8816 25.4325 22.4301 20.3019 27.7184 22.2989C27.8823 22.7857 28.1422 23.2346 28.4828 23.6192C28.8233 24.0037 29.2375 24.316 29.7008 24.5376C30.6033 24.8963 31.6361 24.7585 32.7689 24.1298C33.7002 24.4904 34.6874 24.6853 35.6858 24.7056C36.1324 24.7024 36.5642 24.546 36.9093 24.2626C37.2543 23.9791 37.4917 23.5858 37.5816 23.1485C37.6715 22.7111 37.6085 22.2561 37.4033 21.8595C37.198 21.4629 36.8628 21.1489 36.4538 20.9698L34.5039 18.8816C34.4438 18.8171 34.3669 18.7708 34.2818 18.7478C34.1966 18.7248 34.1068 18.7261 34.0224 18.7515C33.938 18.777 33.8624 18.8256 33.8042 18.8918C33.746 18.958 33.7075 19.0392 33.693 19.1261L33.5458 20.0409C32.5848 18.6178 30.997 16.6944 29.774 17.3604C29.7144 17.3927 29.6625 17.4374 29.6218 17.4916C29.5811 17.5457 29.5525 17.608 29.538 17.6742L29.2449 19.0374C28.6719 18.2777 27.9059 17.6854 27.0265 17.3221C26.9177 17.2739 26.8241 17.1971 26.7555 17.0998C26.6869 17.0026 26.646 16.8885 26.6371 16.7699C26.6253 16.6535 26.6455 16.536 26.6954 16.4302C26.7452 16.3243 26.823 16.2341 26.9203 16.169C28.0564 15.4034 28.7724 14.5949 29.0542 13.7618C29.951 13.8194 31.9768 13.8444 32.9246 12.9981C33.1996 12.7588 33.3803 12.4293 33.4344 12.0687L34.4728 11.2243C34.6102 11.1118 34.7238 10.973 34.8068 10.816C34.8898 10.659 34.9405 10.487 34.9561 10.3101C34.9727 10.123 34.9523 9.93453 34.896 9.75538C34.8397 9.57623 34.7487 9.40994 34.6281 9.266C34.4253 9.02059 34.3035 8.71839 34.2794 8.40094C34.2553 8.08349 34.3301 7.76637 34.4935 7.49317C34.6365 7.22042 34.8599 6.99818 35.1333 6.85652C35.4067 6.71486 35.7171 6.66062 36.0224 6.70115C36.9847 6.89564 37.9804 6.8446 38.9178 6.55274C39.8552 6.26088 40.7039 5.7376 41.3857 5.03121L42.1881 4.18491C46.75 6.34491 50.659 9.67359 53.5184 13.833C56.3777 17.9923 58.0855 22.8343 58.4684 27.8671ZM41.2809 3.77049L40.7008 4.3789C40.1256 4.97206 39.4101 5.41054 38.6205 5.65376C37.8308 5.89698 36.9926 5.93709 36.1833 5.77036C35.6859 5.69416 35.1771 5.77457 34.7274 6.00046C34.2778 6.22636 33.9095 6.58653 33.6737 7.03108C33.4174 7.4715 33.3024 7.9799 33.3441 8.48772C33.3858 8.99555 33.5822 9.47838 33.9069 9.87111C33.9476 9.9189 33.9786 9.97427 33.998 10.034C34.0173 10.0938 34.0247 10.1568 34.0197 10.2194C34.0151 10.2721 33.9998 10.3233 33.9748 10.3698C33.9498 10.4164 33.9156 10.4574 33.8743 10.4904L32.6763 11.4622C32.622 11.5064 32.5781 11.5622 32.548 11.6255C32.5179 11.6888 32.5022 11.7579 32.5022 11.828C32.5046 11.9165 32.4868 12.0043 32.4501 12.0848C32.4133 12.1653 32.3587 12.2364 32.2902 12.2925C31.6493 12.8669 29.775 12.9009 28.7432 12.7867C28.6225 12.7737 28.5014 12.8075 28.4048 12.8811C28.3083 12.9546 28.2435 13.0624 28.224 13.1822C28.1116 13.8902 27.4772 14.6525 26.3888 15.386C26.1527 15.5476 25.9638 15.7692 25.8418 16.0281C25.7197 16.2869 25.6688 16.5736 25.6943 16.8586C25.7199 17.1437 25.8209 17.4168 25.987 17.6498C26.1531 17.8828 26.3783 18.0674 26.6394 18.1845C28.6993 19.1006 28.9272 20.5162 28.9357 20.5714C28.9495 20.6819 29.002 20.784 29.0838 20.8595C29.1656 20.9351 29.2715 20.9793 29.3827 20.9844C29.4936 20.9876 29.6023 20.9524 29.6902 20.8847C29.7781 20.817 29.8399 20.721 29.8651 20.6129L30.3966 18.1684C30.9974 18.26 32.3294 19.7534 33.398 21.5834C33.4469 21.6672 33.5205 21.7339 33.6087 21.7744C33.6968 21.8149 33.7953 21.8272 33.8908 21.8097C33.9862 21.7922 34.074 21.7458 34.142 21.6766C34.2101 21.6075 34.2552 21.519 34.2712 21.4233L34.4709 20.2259L35.8397 21.6919C35.8903 21.746 35.9528 21.7873 36.0224 21.8127C36.2489 21.8891 36.4395 22.046 36.558 22.2536C36.6765 22.4612 36.7146 22.7051 36.6652 22.9389C36.6317 23.1719 36.5137 23.3845 36.3338 23.5362C36.1538 23.6879 35.9244 23.7683 35.6891 23.7621C34.7408 23.7365 33.8051 23.5375 32.9284 23.1749C32.8591 23.144 32.7833 23.1303 32.7076 23.1349C32.6318 23.1395 32.5583 23.1623 32.4932 23.2014C31.544 23.7706 30.7241 23.9268 30.0553 23.6625C28.9697 23.2349 28.5544 21.8255 28.5506 21.8127C28.5311 21.7437 28.4962 21.6801 28.4484 21.6266C28.4006 21.5731 28.3413 21.5312 28.2749 21.5041C22.1602 19.0072 17.991 25.0648 17.9461 25.1328C14.1734 30.9143 20.4581 36.744 20.5218 36.8035C20.5969 36.8719 20.692 36.9142 20.793 36.9242C20.894 36.9342 20.9955 36.9114 21.0826 36.8592C21.7289 36.4846 22.4551 36.2692 23.2012 36.2308C23.9472 36.1924 24.6917 36.3321 25.3731 36.6383C25.4063 36.6549 25.4413 36.6675 25.4774 36.6761L27.1487 37.0669V39.4269C27.1488 39.5184 27.1756 39.608 27.2257 39.6846C28.8621 42.1947 28.4732 44.0615 28.4699 44.0775C28.4609 44.1149 28.4566 44.1533 28.4571 44.1917C28.5095 48.1009 29.2562 50.4694 30.6755 51.2316C30.9895 51.4014 31.341 51.4899 31.6979 51.4889C32.1532 51.4837 32.599 51.3583 32.9902 51.1254C33.0108 51.1121 33.0304 51.0973 33.0488 51.0811L36.3801 48.1075C36.4488 48.0461 36.498 47.9661 36.5217 47.8771L36.9565 46.2459L38.9743 44.6793C39.0594 44.6132 39.1194 44.5199 39.1442 44.415L40.0698 40.4785L45.2316 34.3798C45.2919 34.3084 45.3298 34.2207 45.3402 34.1278C45.3507 34.0349 45.3333 33.941 45.2903 33.858C45.2474 33.775 45.1807 33.7066 45.0988 33.6615C45.0169 33.6164 44.9235 33.5967 44.8304 33.6048C41.3574 33.9068 39.4614 30.1535 38.6391 27.8888C38.5911 27.7588 38.5858 27.6168 38.6241 27.4836C38.6624 27.3504 38.7422 27.2329 38.852 27.1482C38.952 27.0627 39.0768 27.0113 39.2081 27.0017C39.3394 26.9921 39.4703 27.0248 39.5817 27.0949C41.6161 28.3603 42.2603 31.5171 42.2665 31.5487C42.287 31.6504 42.3405 31.7425 42.4186 31.8108C42.4968 31.8791 42.5953 31.9197 42.6988 31.9263C44.7988 32.0632 46.3262 31.628 47.2362 30.6326C47.557 30.2663 47.7974 29.8367 47.9416 29.3716C48.0858 28.9065 48.1308 28.4163 48.0735 27.9327C48.0638 27.8703 48.0416 27.8105 48.0084 27.7568C47.9751 27.7032 47.9314 27.6567 47.8799 27.6202C47.8283 27.5837 47.77 27.558 47.7083 27.5444C47.6466 27.5309 47.5829 27.5299 47.5208 27.5414C47.2304 27.6157 46.9271 27.6241 46.6331 27.566C46.3391 27.5078 46.0618 27.3846 45.8216 27.2054C45.3139 26.745 44.9619 26.1382 44.8143 25.4689C47.6997 27.3531 49.4083 27.3545 50.2895 27.085C50.5094 28.2237 51.019 29.2866 51.7693 30.1709C51.7409 31.8334 51.9928 33.4888 52.5146 35.0675C52.5365 35.1286 52.5708 35.1846 52.6153 35.2318C52.6599 35.2791 52.7137 35.3167 52.7734 35.3422C52.8331 35.3677 52.8975 35.3806 52.9624 35.3801C53.0273 35.3797 53.0915 35.3658 53.1508 35.3394C53.9929 34.9651 54.5772 34.0942 54.8868 32.7514C55.1036 31.84 55.5525 31.0002 56.19 30.3137C56.8274 29.6272 57.6317 29.1173 58.5246 28.8338C58.5401 29.2208 58.5543 29.6078 58.5543 29.9987C58.5569 35.0516 57.2181 40.0148 54.6745 44.3809C52.131 48.747 48.4739 52.3596 44.077 54.8495C39.6801 57.3395 34.701 58.6176 29.6484 58.5531C24.5958 58.4887 19.6509 57.0841 15.319 54.4828C14.9163 54.0806 12.6172 51.5309 13.1006 46.1633C13.2946 43.4993 12.4978 38.3753 8.10678 37.9977C7.72163 37.8825 3.7016 36.5425 1.44401 29.9246C1.45245 25.0409 2.72137 20.2421 5.12798 15.9925C5.54618 16.0307 5.95493 16.0543 6.34622 16.0543C8.79114 16.0893 11.1883 15.3758 13.2162 14.0096C13.3114 13.9371 13.3755 13.8312 13.3956 13.7132C13.5155 12.7997 13.8716 11.9334 14.4288 11.1996C14.986 10.4659 15.7249 9.89019 16.5726 9.52938C16.6034 9.51851 16.6331 9.50477 16.6613 9.48832C19.559 7.76315 20.5544 4.05039 20.7876 2.97706C27.4801 0.686768 34.7855 0.969609 41.2809 3.77049ZM19.7142 3.36835C19.3366 4.72063 18.352 7.36054 16.2167 8.65476C15.2527 9.06403 14.4073 9.70935 13.7583 10.5312C13.1093 11.3532 12.6776 12.3252 12.503 13.3578C10.4566 14.6311 8.06477 15.2365 5.65899 15.09C8.9401 9.75431 13.876 5.63789 19.7142 3.36835Z" fill="white" stroke="white"/>
<path d="M22.1332 15.0471C22.1776 15.0985 22.2325 15.1398 22.2942 15.1681C22.356 15.1963 22.4231 15.2109 22.491 15.2109H22.5123C24.5201 15.1207 25.6879 14.6181 26.0825 13.6741C26.613 12.4058 25.408 11.0172 25.2687 10.8628C25.1894 10.7753 25.0804 10.7205 24.9629 10.7089C22.8984 10.5116 22.1106 14.2249 22.0275 14.6487C22.0139 14.7188 22.0163 14.7911 22.0346 14.8601C22.0529 14.9291 22.0866 14.993 22.1332 15.0471ZM24.7005 11.6572C24.9969 12.0452 25.4321 12.7862 25.2112 13.3092C25.0143 13.7774 24.2733 14.0937 23.1013 14.2183C23.3954 13.1733 23.9788 11.7922 24.7005 11.6572Z" fill="white"/>
<path d="M39.9592 49.7155C39.9862 49.7155 40.013 49.7132 40.0395 49.7084C44.5537 48.9301 45.3519 43.7711 45.384 43.5521C45.3943 43.4811 45.3883 43.4086 45.3663 43.3402C45.3444 43.2718 45.3072 43.2094 45.2575 43.1575C45.208 43.1054 45.1472 43.0655 45.0797 43.0409C45.0122 43.0163 44.9399 43.0078 44.8685 43.0159C41.0137 43.4091 39.5623 48.8933 39.5024 49.1269C39.4844 49.1966 39.4827 49.2695 39.4973 49.34C39.5118 49.4105 39.5423 49.4767 39.5864 49.5336C39.6305 49.5905 39.687 49.6365 39.7516 49.6682C39.8163 49.6999 39.8873 49.7164 39.9592 49.7165V49.7155ZM44.2955 44.0987C43.9651 45.299 43.0211 47.7444 40.671 48.5752C41.1454 47.271 42.2952 44.7515 44.2974 44.0963L44.2955 44.0987Z" fill="white"/>
</svg>
