<svg width="60" height="62" viewBox="0 0 60 62" fill="none" xmlns="http://www.w3.org/2000/svg">
<path d="M0.309466 36.7016C-0.532508 39.2947 0.381789 42.1126 2.58751 43.7162L6.33004 46.436C7.05326 46.9629 7.58269 47.6886 7.85907 48.541L9.28998 52.9421C10.132 55.5352 12.5314 57.276 15.2563 57.276H19.8821C20.7758 57.276 21.6307 57.555 22.3565 58.0793L26.099 60.799C27.2019 61.5996 28.4933 62 29.7872 62C31.0786 62 32.3727 61.5997 33.4755 60.799L37.218 58.0793C37.9412 57.5524 38.7987 57.276 39.6924 57.276H44.3182C47.0457 57.276 49.4425 55.5352 50.2845 52.9421L51.7154 48.541C51.9918 47.6912 52.5213 46.9629 53.2444 46.436L56.987 43.7162C59.1927 42.1123 60.1071 39.2945 59.265 36.7016L57.8341 32.3005C57.5577 31.4507 57.5577 30.5519 57.8341 29.6996L59.265 25.2985C60.107 22.7053 59.1927 19.8875 56.987 18.2838L53.2444 15.5641C52.5212 15.0372 51.9918 14.3114 51.7154 13.459L50.2845 9.05796C49.4425 6.46479 47.0431 4.72397 44.3182 4.72397H39.6924C38.7987 4.72397 37.9438 4.44503 37.218 3.92075L33.4755 1.20102C31.2698 -0.400341 28.3073 -0.400341 26.0991 1.20102L22.3566 3.92075C21.6334 4.44764 20.7759 4.72397 19.8822 4.72397H15.2564C12.5289 4.72397 10.1321 6.46479 9.29011 9.05796L7.8592 13.459C7.58284 14.3088 7.05333 15.0371 6.33017 15.5641L2.58764 18.2838C0.381934 19.8877 -0.532442 22.7056 0.309599 25.2985L1.74051 29.6996C2.01687 30.5493 2.01687 31.4481 1.74051 32.3005L0.309466 36.7016ZM3.70328 29.0614L2.27238 24.6603C1.70674 22.922 2.32145 21.0314 3.80141 19.9544L7.54394 17.2346C8.62355 16.4495 9.41131 15.3647 9.82198 14.0965L11.2529 9.69542C11.8185 7.95719 13.4276 6.78719 15.2563 6.78719H19.8821C21.2148 6.78719 22.4907 6.37394 23.5704 5.58876L27.3129 2.86904C28.7929 1.79458 30.779 1.79458 32.2616 2.86904L36.0041 5.58876C37.0837 6.37394 38.3597 6.78719 39.6924 6.78719H44.3182C46.1468 6.78719 47.7559 7.95461 48.3216 9.69542L49.7525 14.0965C50.1658 15.3647 50.9535 16.4495 52.0305 17.2346L55.7731 19.9544C57.253 21.0288 57.8652 22.9195 57.3021 24.6603L55.8712 29.0614C55.4579 30.3296 55.4579 31.67 55.8712 32.9382L57.3021 37.3393C57.8677 39.0775 57.253 40.9682 55.7731 42.0452L52.0305 44.7649C50.9509 45.5501 50.1632 46.6349 49.7525 47.903L48.3216 52.3041C47.756 54.0424 46.1468 55.2124 44.3182 55.2124H39.6924C38.3597 55.2124 37.0837 55.6256 36.0041 56.4108L32.2616 59.1305C30.7816 60.205 28.7929 60.205 27.3129 59.1305L23.5704 56.4108C22.4907 55.6256 21.2148 55.2124 19.8821 55.2124H15.2563C13.4276 55.2124 11.8185 54.0449 11.2529 52.3041L9.82198 47.903C9.40873 46.6349 8.62097 45.5501 7.54394 44.7649L3.80141 42.0452C2.32144 40.9707 1.7093 39.0801 2.27238 37.3393L3.70328 32.9382C4.11654 31.67 4.11654 30.3296 3.70328 29.0614Z" fill="white"/>
<path d="M29.7872 50.8916C40.7539 50.8916 49.6774 41.968 49.6774 31.0013C49.6774 20.0346 40.7539 11.111 29.7872 11.111C18.8205 11.111 9.89688 20.0346 9.89688 31.0013C9.89688 41.968 18.8205 50.8916 29.7872 50.8916ZM29.7872 13.1773C39.6146 13.1773 47.6112 21.1739 47.6112 31.0013C47.6112 40.8287 39.6146 48.8253 29.7872 48.8253C19.9597 48.8253 11.9631 40.8287 11.9631 31.0013C11.9631 21.1739 19.9597 13.1773 29.7872 13.1773Z" fill="white"/>
<path d="M21.9665 33.6309L21.5171 40.9736C21.4964 41.3249 21.6565 41.6658 21.9406 41.8724C22.2273 42.0816 22.5993 42.1281 22.9273 41.9964L29.772 39.3L36.6168 41.9964C36.7408 42.0455 36.8673 42.0687 36.9965 42.0687C37.2109 42.0687 37.4252 42.0016 37.6034 41.8724C37.8876 41.6658 38.0477 41.3249 38.027 40.9736L37.5776 33.6309L42.2577 27.9565C42.4824 27.6827 42.5521 27.316 42.4436 26.9802C42.3352 26.6444 42.0614 26.3861 41.7204 26.2983L34.5973 24.4568L30.6455 18.2528C30.2659 17.6562 29.2818 17.6588 28.9022 18.2528L24.9504 24.4568L17.8273 26.2983C17.4864 26.3862 17.2126 26.6444 17.1041 26.9802C16.9956 27.3159 17.0653 27.6853 17.29 27.9565L21.9701 33.6309H21.9665ZM25.8588 26.3551C26.1119 26.2905 26.3314 26.1304 26.4709 25.9108L29.7692 20.7297L33.0674 25.9108C33.2069 26.133 33.4265 26.2905 33.6796 26.3551L39.6252 27.8918L35.7174 32.6288C35.5521 32.8302 35.4669 33.0885 35.4824 33.3493L35.8594 39.4783L30.1463 37.2262C30.0249 37.1797 29.8957 37.1538 29.7666 37.1538C29.6374 37.1538 29.5083 37.1771 29.3869 37.2262L23.6737 39.4783L24.0508 33.3493C24.0663 33.0885 23.9837 32.8302 23.8158 32.6288L19.9079 27.8918L25.8536 26.3551H25.8588Z" fill="white"/>
</svg>
